<svg width="18" height="23" viewBox="0 0 18 23" fill="none" xmlns="http://www.w3.org/2000/svg">
<path d="M15.0001 12.3099C15.022 10.6116 15.9341 9.00462 17.3809 8.11509C16.4682 6.81149 14.9393 5.98497 13.3487 5.93521C11.6522 5.75713 10.0075 6.95038 9.14296 6.95038C8.26172 6.95038 6.93066 5.95289 5.49733 5.98238C3.62905 6.04274 1.88734 7.10494 0.978381 8.73832C-0.975521 12.1212 0.481913 17.0929 2.35359 19.8273C3.29003 21.1663 4.38445 22.662 5.81649 22.609C7.21782 22.5509 7.74119 21.7154 9.43272 21.7154C11.1086 21.7154 11.5996 22.609 13.0607 22.5753C14.5644 22.5508 15.5118 21.2303 16.4154 19.8787C17.0882 18.9246 17.6059 17.8701 17.9494 16.7543C16.1823 16.0069 15.0022 14.2286 15.0001 12.3099Z" fill="white"/>
<path d="M12.2403 4.13689C13.0602 3.15266 13.4641 1.88759 13.3663 0.610352C12.1137 0.741912 10.9567 1.34057 10.1257 2.28704C9.31319 3.21179 8.89033 4.4546 8.97027 5.68302C10.2233 5.69592 11.4552 5.11349 12.2403 4.13689Z" fill="white"/>
</svg>
