<svg width="24" height="24" viewBox="0 0 24 24" fill="none" xmlns="http://www.w3.org/2000/svg">
<path d="M2.9999 11.9999C2.9999 12.1988 3.07892 12.3896 3.21957 12.5303C3.36022 12.6709 3.55099 12.7499 3.7499 12.7499H18.4396L12.9693 18.2193C12.8996 18.289 12.8443 18.3717 12.8066 18.4628C12.7689 18.5538 12.7495 18.6514 12.7495 18.7499C12.7495 18.8485 12.7689 18.9461 12.8066 19.0371C12.8443 19.1281 12.8996 19.2109 12.9693 19.2806C13.039 19.3502 13.1217 19.4055 13.2127 19.4432C13.3038 19.4809 13.4014 19.5003 13.4999 19.5003C13.5984 19.5003 13.696 19.4809 13.7871 19.4432C13.8781 19.4055 13.9608 19.3502 14.0305 19.2806L20.7805 12.5306C20.8503 12.4609 20.9056 12.3782 20.9433 12.2871C20.9811 12.1961 21.0005 12.0985 21.0005 11.9999C21.0005 11.9014 20.9811 11.8038 20.9433 11.7127C20.9056 11.6217 20.8503 11.539 20.7805 11.4693L14.0305 4.7193C13.8898 4.57857 13.6989 4.49951 13.4999 4.49951C13.3009 4.49951 13.11 4.57857 12.9693 4.7193C12.8285 4.86003 12.7495 5.05091 12.7495 5.24993C12.7495 5.44895 12.8285 5.63982 12.9693 5.78055L18.4396 11.2499H3.7499C3.55099 11.2499 3.36022 11.3289 3.21957 11.4696C3.07892 11.6103 2.9999 11.801 2.9999 11.9999Z" fill="black"/>
</svg>
