<svg width="21" height="23" viewBox="0 0 21 23" fill="none" xmlns="http://www.w3.org/2000/svg">
<path d="M15.4484 15.6095L3.15057 22.5987C2.58241 22.9209 2.06318 22.9655 1.67206 22.7794L12.1447 12.3058L15.4484 15.6095ZM11.5881 11.7491L1.12616 22.212C1.01288 21.9738 0.949402 21.6773 0.949402 21.3282V2.17197C0.949402 1.82312 1.01267 1.52573 1.12616 1.2872L11.5881 11.7491ZM20.0422 10.5001C21.252 11.1879 21.2522 12.3135 20.0422 13.002L16.1594 15.2071L12.7014 11.7491L16.1574 8.29208L20.0422 10.5001ZM1.67206 0.719818C2.06311 0.53385 2.58268 0.57875 3.15057 0.901459L15.4474 7.88876L12.1447 11.1925L1.67206 0.719818Z" fill="white"/>
</svg>
