<svg width="173" height="32" viewBox="0 0 173 32" fill="none" xmlns="http://www.w3.org/2000/svg">
<rect x="10.6207" y="0.00744247" width="2.12553" height="6.29508" fill="#00C950"/>
<rect width="2.11313" height="6.33254" transform="matrix(0.740513 0.672042 -0.681478 0.731839 18.1315 1.05683)" fill="#00C950"/>
<rect x="23.3738" y="7.35196" width="2.09935" height="6.37658" transform="rotate(90 23.3738 7.35196)" fill="#00C950"/>
<rect x="6.37659" y="7.37298" width="2.09935" height="6.37658" transform="rotate(90 6.37659 7.37298)" fill="#00C950"/>
<rect width="2.11313" height="6.33254" transform="matrix(-0.740513 0.672042 0.681478 0.731839 4.74585 1.05683)" fill="#00C950"/>
<path d="M9.75382 9.80994L14.7539 9.80994L12.0279 18.2034H15.9415L6.3007 31.9926L8.49629 23.6837L5.31384 23.6837L9.75382 9.80994Z" fill="#00C950"/>
<path d="M40.0366 23.5H30.7278C30.3316 23.5 30.1336 23.3019 30.1336 22.9058V5.90087C30.1336 5.50474 30.3316 5.30668 30.7278 5.30668H33.1328C33.5289 5.30668 33.727 5.50474 33.727 5.90087V20.0481C33.727 20.2556 33.8401 20.3593 34.0665 20.3593H40.0366C40.4139 20.3593 40.6025 20.5668 40.6025 20.9818V22.9058C40.6025 23.3019 40.4139 23.5 40.0366 23.5ZM42.7025 6.63652V4.17491C42.7025 3.79765 42.8911 3.60902 43.2684 3.60902H45.73C46.1072 3.60902 46.2959 3.78822 46.2959 4.14661V6.63652C46.2959 7.01378 46.1072 7.20241 45.73 7.20241H43.2684C42.8911 7.20241 42.7025 7.01378 42.7025 6.63652ZM42.7025 22.9058V9.66403C42.7025 9.2679 42.8911 9.06984 43.2684 9.06984H45.7017C46.0978 9.06984 46.2959 9.2679 46.2959 9.66403V22.9058C46.2959 23.151 46.2487 23.3114 46.1544 23.3868C46.079 23.4623 45.9375 23.5 45.73 23.5H43.2967C42.9005 23.5 42.7025 23.3019 42.7025 22.9058ZM54.6447 22.8492H53.711C52.2586 22.8492 51.1551 22.4531 50.4006 21.6609C49.6649 20.8686 49.2971 19.7274 49.2971 18.2372V13.6818C49.2971 12.1917 49.7026 11.0505 50.5137 10.2582C51.3248 9.46596 52.4755 9.06984 53.9657 9.06984H60.5017C60.9167 9.06984 61.1241 9.2679 61.1241 9.66403V23.6132C61.1241 25.0845 60.7092 26.2163 59.8792 27.0085C59.0681 27.8008 57.9269 28.1969 56.4556 28.1969H51.023C50.7967 28.1969 50.6363 28.1497 50.542 28.0554C50.4666 27.98 50.4289 27.8385 50.4289 27.631V25.6787C50.4289 25.2825 50.6269 25.0845 51.023 25.0845H55.8614C56.465 25.0845 56.8894 24.9524 57.1346 24.6884C57.3987 24.4431 57.5308 24.0282 57.5308 23.4434V21.293H57.4176C57.2101 21.8023 56.8423 22.189 56.3141 22.4531C55.7859 22.7172 55.2295 22.8492 54.6447 22.8492ZM57.5308 17.5865V12.4935C57.5308 12.286 57.4176 12.1822 57.1912 12.1822H54.5315C53.9279 12.1822 53.5035 12.3143 53.2583 12.5784C53.0131 12.8236 52.8905 13.248 52.8905 13.8516V18.0675C52.8905 18.6711 53.0131 19.0955 53.2583 19.3407C53.5035 19.5859 53.9279 19.7085 54.5315 19.7085H55.5784C56.88 19.7085 57.5308 19.0012 57.5308 17.5865ZM67.2231 23.5H64.8181C64.422 23.5 64.2239 23.3019 64.2239 22.9058V4.2032C64.2239 3.80708 64.422 3.60902 64.8181 3.60902H67.2231C67.6193 3.60902 67.8173 3.80708 67.8173 4.2032V10.5977H67.9305C68.3455 9.57914 69.2698 9.06984 70.7034 9.06984H71.6088C74.5703 9.06984 76.051 10.6072 76.051 13.6818V22.9058C76.051 23.3019 75.8435 23.5 75.4285 23.5H73.0518C72.6557 23.5 72.4576 23.3019 72.4576 22.9058V13.8516C72.4576 13.248 72.3256 12.8236 72.0615 12.5784C71.8163 12.3143 71.3919 12.1822 70.7882 12.1822H69.7696C68.4681 12.1822 67.8173 12.899 67.8173 14.3326V22.9058C67.8173 23.3019 67.6193 23.5 67.2231 23.5ZM79.3455 12.1822H78.2138C77.9874 12.1822 77.8271 12.1445 77.7328 12.0691C77.6573 11.9936 77.6196 11.8427 77.6196 11.6163V9.66403C77.6196 9.2679 77.8176 9.06984 78.2138 9.06984H79.3455C79.553 9.06984 79.6568 8.9661 79.6568 8.7586V6.07063C79.6568 5.67451 79.8643 5.47645 80.2793 5.47645H82.656C83.0521 5.47645 83.2502 5.67451 83.2502 6.07063V8.7586C83.2502 8.9661 83.3633 9.06984 83.5897 9.06984H85.7967C86.1928 9.06984 86.3908 9.2679 86.3908 9.66403V11.6163C86.3908 11.8238 86.3437 11.9747 86.2494 12.0691C86.1739 12.1445 86.023 12.1822 85.7967 12.1822H83.5897C83.3633 12.1822 83.2502 12.286 83.2502 12.4935V18.7465C83.2502 19.3313 83.3822 19.7557 83.6463 20.0198C83.9104 20.265 84.3442 20.3876 84.9478 20.3876H86.0796C86.4757 20.3876 86.6738 20.5857 86.6738 20.9818V22.9341C86.6738 23.1416 86.6266 23.2925 86.5323 23.3868C86.4569 23.4623 86.306 23.5 86.0796 23.5H84.3536C82.8635 23.5 81.7034 23.1039 80.8734 22.3116C80.0623 21.5194 79.6568 20.3876 79.6568 18.9163V12.4935C79.6568 12.286 79.553 12.1822 79.3455 12.1822ZM92.0084 23.5H89.6034C89.2072 23.5 89.0092 23.3019 89.0092 22.9058V9.66403C89.0092 9.2679 89.2072 9.06984 89.6034 9.06984H92.0084C92.4045 9.06984 92.6026 9.2679 92.6026 9.66403V10.5977H92.7158C92.9421 10.145 93.3194 9.7772 93.8475 9.49426C94.3946 9.21131 95.017 9.06984 95.715 9.06984H96.5072C98.1483 9.06984 99.3272 9.67346 100.044 10.8807C100.685 9.67346 101.789 9.06984 103.354 9.06984H104.175C105.627 9.06984 106.722 9.46596 107.457 10.2582C108.212 11.0505 108.589 12.1917 108.589 13.6818V22.9058C108.589 23.3019 108.391 23.5 107.995 23.5H105.59C105.194 23.5 104.996 23.3019 104.996 22.9058V13.8516C104.996 13.248 104.873 12.8236 104.628 12.5784C104.382 12.3143 103.958 12.1822 103.354 12.1822H102.647C101.346 12.1822 100.695 12.9085 100.695 14.3609V22.9058C100.695 23.3019 100.487 23.5 100.072 23.5H97.6956C97.2995 23.5 97.1014 23.3019 97.1014 22.9058V13.8516C97.1014 13.248 96.9694 12.8236 96.7053 12.5784C96.4601 12.3143 96.0356 12.1822 95.432 12.1822H94.5549C93.2534 12.1822 92.6026 12.899 92.6026 14.3326V22.9058C92.6026 23.3019 92.4045 23.5 92.0084 23.5ZM116.649 23.5H115.97C114.479 23.5 113.329 23.1039 112.518 22.3116C111.707 21.5194 111.301 20.3782 111.301 18.888V13.6818C111.301 12.1917 111.707 11.0505 112.518 10.2582C113.329 9.46596 114.479 9.06984 115.97 9.06984H122.506C122.921 9.06984 123.128 9.2679 123.128 9.66403V22.9058C123.128 23.3019 122.921 23.5 122.506 23.5H120.129C119.733 23.5 119.535 23.3019 119.535 22.9058V21.9721H119.421C119.214 22.4814 118.846 22.8681 118.318 23.1322C117.79 23.3774 117.233 23.5 116.649 23.5ZM119.535 18.2372V12.4935C119.535 12.286 119.421 12.1822 119.195 12.1822H116.535C115.932 12.1822 115.507 12.3143 115.262 12.5784C115.017 12.8236 114.894 13.248 114.894 13.8516V18.7182C114.894 19.3219 115.017 19.7557 115.262 20.0198C115.507 20.265 115.932 20.3876 116.535 20.3876H117.582C118.884 20.3876 119.535 19.6708 119.535 18.2372ZM129.228 23.5H126.823C126.427 23.5 126.229 23.3019 126.229 22.9058V9.66403C126.229 9.2679 126.427 9.06984 126.823 9.06984H129.228C129.624 9.06984 129.822 9.2679 129.822 9.66403V10.5977H129.935C130.35 9.57914 131.274 9.06984 132.708 9.06984H133.613C136.575 9.06984 138.056 10.6072 138.056 13.6818V22.9058C138.056 23.3019 137.848 23.5 137.433 23.5H135.056C134.66 23.5 134.462 23.3019 134.462 22.9058V13.8516C134.462 13.248 134.33 12.8236 134.066 12.5784C133.821 12.3143 133.396 12.1822 132.793 12.1822H131.774C130.473 12.1822 129.822 12.899 129.822 14.3326V22.9058C129.822 23.3019 129.624 23.5 129.228 23.5ZM144.264 23.5H141.916C141.52 23.5 141.322 23.3019 141.322 22.9058V5.90087C141.322 5.50474 141.52 5.30668 141.916 5.30668H144.038C144.434 5.30668 144.698 5.43872 144.83 5.70281L150.546 16.4264H150.659V5.90087C150.659 5.50474 150.857 5.30668 151.253 5.30668H153.602C153.998 5.30668 154.196 5.50474 154.196 5.90087V22.9058C154.196 23.3019 153.998 23.5 153.602 23.5H151.536C151.121 23.5 150.819 23.3114 150.631 22.9341L144.972 12.4086H144.859V22.9058C144.859 23.3019 144.661 23.5 144.264 23.5ZM165.258 23.5H162.259C160.768 23.5 159.618 23.1039 158.807 22.3116C157.996 21.5194 157.59 20.3782 157.59 18.888V9.91867C157.59 8.4285 157.996 7.28729 158.807 6.49505C159.618 5.70281 160.768 5.30668 162.259 5.30668H165.258C166.729 5.30668 167.87 5.71224 168.681 6.52334C169.493 7.31559 169.898 8.44736 169.898 9.91867V10.7675C169.898 11.1825 169.7 11.39 169.304 11.39H166.899C166.503 11.39 166.305 11.1825 166.305 10.7675V10.0884C166.305 9.48483 166.182 9.06041 165.937 8.81519C165.692 8.55111 165.267 8.41907 164.664 8.41907H162.824C162.24 8.41907 161.815 8.55111 161.551 8.81519C161.306 9.06041 161.183 9.48483 161.183 10.0884V18.7182C161.183 19.3219 161.306 19.7557 161.551 20.0198C161.815 20.265 162.24 20.3876 162.824 20.3876H164.664C165.267 20.3876 165.692 20.265 165.937 20.0198C166.182 19.7557 166.305 19.3219 166.305 18.7182V16.9357C166.305 16.7282 166.201 16.6245 165.993 16.6245H164.296C163.9 16.6245 163.702 16.4264 163.702 16.0303V14.1063C163.702 13.7101 163.9 13.5121 164.296 13.5121H169.247C169.681 13.5121 169.898 13.729 169.898 14.1628V18.888C169.898 20.3593 169.493 21.5005 168.681 22.3116C167.87 23.1039 166.729 23.5 165.258 23.5Z" fill="#00C950"/>
</svg>
