<svg width="120" height="121" viewBox="0 0 120 121" fill="none" xmlns="http://www.w3.org/2000/svg">
<g clip-path="url(#clip0_1_1433)">
<path d="M120 0.610352H0V120.61H120V0.610352Z" fill="white"/>
<path d="M8.52426 5.81369H5.20325V9.1347H8.52426V5.81369Z" fill="black"/>
<path d="M11.8453 5.81369H8.52426V9.1347H11.8453V5.81369Z" fill="black"/>
<path d="M15.1663 5.81369H11.8453V9.1347H15.1663V5.81369Z" fill="black"/>
<path d="M18.4873 5.81369H15.1663V9.1347H18.4873V5.81369Z" fill="black"/>
<path d="M21.8083 5.81369H18.4873V9.1347H21.8083V5.81369Z" fill="black"/>
<path d="M25.1293 5.81369H21.8083V9.1347H25.1293V5.81369Z" fill="black"/>
<path d="M28.4504 5.81369H25.1293V9.1347H28.4504V5.81369Z" fill="black"/>
<path d="M35.0924 5.81369H31.7714V9.1347H35.0924V5.81369Z" fill="black"/>
<path d="M51.6975 5.81369H48.3764V9.1347H51.6975V5.81369Z" fill="black"/>
<path d="M64.9815 5.81369H61.6605V9.1347H64.9815V5.81369Z" fill="black"/>
<path d="M71.6235 5.81369H68.3025V9.1347H71.6235V5.81369Z" fill="black"/>
<path d="M74.9446 5.81369H71.6235V9.1347H74.9446V5.81369Z" fill="black"/>
<path d="M78.2656 5.81369H74.9446V9.1347H78.2656V5.81369Z" fill="black"/>
<path d="M81.5866 5.81369H78.2656V9.1347H81.5866V5.81369Z" fill="black"/>
<path d="M84.9076 5.81369H81.5866V9.1347H84.9076V5.81369Z" fill="black"/>
<path d="M88.2286 5.81369H84.9076V9.1347H88.2286V5.81369Z" fill="black"/>
<path d="M94.8707 5.81369H91.5496V9.1347H94.8707V5.81369Z" fill="black"/>
<path d="M98.1917 5.81369H94.8707V9.1347H98.1917V5.81369Z" fill="black"/>
<path d="M101.513 5.81369H98.1917V9.1347H101.513V5.81369Z" fill="black"/>
<path d="M104.834 5.81369H101.513V9.1347H104.834V5.81369Z" fill="black"/>
<path d="M108.155 5.81369H104.834V9.1347H108.155V5.81369Z" fill="black"/>
<path d="M111.476 5.81369H108.155V9.1347H111.476V5.81369Z" fill="black"/>
<path d="M114.797 5.81369H111.476V9.1347H114.797V5.81369Z" fill="black"/>
<path d="M8.52426 9.1347H5.20325V12.4557H8.52426V9.1347Z" fill="black"/>
<path d="M28.4504 9.1347H25.1293V12.4557H28.4504V9.1347Z" fill="black"/>
<path d="M41.7344 9.1347H38.4134V12.4557H41.7344V9.1347Z" fill="black"/>
<path d="M45.0554 9.1347H41.7344V12.4557H45.0554V9.1347Z" fill="black"/>
<path d="M61.6605 9.1347H58.3395V12.4557H61.6605V9.1347Z" fill="black"/>
<path d="M64.9815 9.1347H61.6605V12.4557H64.9815V9.1347Z" fill="black"/>
<path d="M71.6235 9.1347H68.3025V12.4557H71.6235V9.1347Z" fill="black"/>
<path d="M88.2286 9.1347H84.9076V12.4557H88.2286V9.1347Z" fill="black"/>
<path d="M94.8707 9.1347H91.5496V12.4557H94.8707V9.1347Z" fill="black"/>
<path d="M114.797 9.1347H111.476V12.4557H114.797V9.1347Z" fill="black"/>
<path d="M8.52426 12.4557H5.20325V15.7767H8.52426V12.4557Z" fill="black"/>
<path d="M15.1663 12.4557H11.8453V15.7767H15.1663V12.4557Z" fill="black"/>
<path d="M18.4873 12.4557H15.1663V15.7767H18.4873V12.4557Z" fill="black"/>
<path d="M21.8083 12.4557H18.4873V15.7767H21.8083V12.4557Z" fill="black"/>
<path d="M28.4504 12.4557H25.1293V15.7767H28.4504V12.4557Z" fill="black"/>
<path d="M41.7344 12.4557H38.4134V15.7767H41.7344V12.4557Z" fill="black"/>
<path d="M45.0554 12.4557H41.7344V15.7767H45.0554V12.4557Z" fill="black"/>
<path d="M51.6975 12.4557H48.3764V15.7767H51.6975V12.4557Z" fill="black"/>
<path d="M55.0185 12.4557H51.6975V15.7767H55.0185V12.4557Z" fill="black"/>
<path d="M61.6605 12.4557H58.3395V15.7767H61.6605V12.4557Z" fill="black"/>
<path d="M64.9815 12.4557H61.6605V15.7767H64.9815V12.4557Z" fill="black"/>
<path d="M71.6235 12.4557H68.3025V15.7767H71.6235V12.4557Z" fill="black"/>
<path d="M74.9446 12.4557H71.6235V15.7767H74.9446V12.4557Z" fill="black"/>
<path d="M84.9076 12.4557H81.5866V15.7767H84.9076V12.4557Z" fill="black"/>
<path d="M88.2286 12.4557H84.9076V15.7767H88.2286V12.4557Z" fill="black"/>
<path d="M94.8707 12.4557H91.5496V15.7767H94.8707V12.4557Z" fill="black"/>
<path d="M101.513 12.4557H98.1917V15.7767H101.513V12.4557Z" fill="black"/>
<path d="M104.834 12.4557H101.513V15.7767H104.834V12.4557Z" fill="black"/>
<path d="M108.155 12.4557H104.834V15.7767H108.155V12.4557Z" fill="black"/>
<path d="M114.797 12.4557H111.476V15.7767H114.797V12.4557Z" fill="black"/>
<path d="M8.52426 15.7767H5.20325V19.0977H8.52426V15.7767Z" fill="black"/>
<path d="M15.1663 15.7767H11.8453V19.0977H15.1663V15.7767Z" fill="black"/>
<path d="M18.4873 15.7767H15.1663V19.0977H18.4873V15.7767Z" fill="black"/>
<path d="M21.8083 15.7767H18.4873V19.0977H21.8083V15.7767Z" fill="black"/>
<path d="M28.4504 15.7767H25.1293V19.0977H28.4504V15.7767Z" fill="black"/>
<path d="M35.0924 15.7767H31.7714V19.0977H35.0924V15.7767Z" fill="black"/>
<path d="M41.7344 15.7767H38.4134V19.0977H41.7344V15.7767Z" fill="black"/>
<path d="M45.0554 15.7767H41.7344V19.0977H45.0554V15.7767Z" fill="black"/>
<path d="M48.3764 15.7767H45.0554V19.0977H48.3764V15.7767Z" fill="black"/>
<path d="M51.6975 15.7767H48.3764V19.0977H51.6975V15.7767Z" fill="black"/>
<path d="M55.0185 15.7767H51.6975V19.0977H55.0185V15.7767Z" fill="black"/>
<path d="M58.3395 15.7767H55.0185V19.0977H58.3395V15.7767Z" fill="black"/>
<path d="M61.6605 15.7767H58.3395V19.0977H61.6605V15.7767Z" fill="black"/>
<path d="M64.9815 15.7767H61.6605V19.0977H64.9815V15.7767Z" fill="black"/>
<path d="M68.3025 15.7767H64.9815V19.0977H68.3025L68.3025 15.7767Z" fill="black"/>
<path d="M81.5866 15.7767H78.2656V19.0977H81.5866V15.7767Z" fill="black"/>
<path d="M94.8707 15.7767H91.5496V19.0977H94.8707V15.7767Z" fill="black"/>
<path d="M101.513 15.7767H98.1917V19.0977H101.513V15.7767Z" fill="black"/>
<path d="M104.834 15.7767H101.513V19.0977H104.834V15.7767Z" fill="black"/>
<path d="M108.155 15.7767H104.834V19.0977H108.155V15.7767Z" fill="black"/>
<path d="M114.797 15.7767H111.476V19.0977H114.797V15.7767Z" fill="black"/>
<path d="M8.52426 19.0977H5.20325V22.4188H8.52426V19.0977Z" fill="black"/>
<path d="M15.1663 19.0977H11.8453V22.4188H15.1663V19.0977Z" fill="black"/>
<path d="M18.4873 19.0977H15.1663V22.4188H18.4873V19.0977Z" fill="black"/>
<path d="M21.8083 19.0977H18.4873V22.4188H21.8083V19.0977Z" fill="black"/>
<path d="M28.4504 19.0977H25.1293V22.4188H28.4504V19.0977Z" fill="black"/>
<path d="M35.0924 19.0977H31.7714V22.4188H35.0924V19.0977Z" fill="black"/>
<path d="M38.4134 19.0977H35.0924V22.4188H38.4134V19.0977Z" fill="black"/>
<path d="M41.7344 19.0977H38.4134V22.4188H41.7344V19.0977Z" fill="black"/>
<path d="M55.0185 19.0977H51.6975V22.4188H55.0185V19.0977Z" fill="black"/>
<path d="M58.3395 19.0977H55.0185V22.4188H58.3395V19.0977Z" fill="black"/>
<path d="M68.3025 19.0977H64.9815V22.4188H68.3025V19.0977Z" fill="black"/>
<path d="M74.9446 19.0977H71.6235V22.4188H74.9446V19.0977Z" fill="black"/>
<path d="M81.5866 19.0977H78.2656V22.4188H81.5866V19.0977Z" fill="black"/>
<path d="M84.9076 19.0977H81.5866V22.4188H84.9076V19.0977Z" fill="black"/>
<path d="M88.2286 19.0977H84.9076V22.4188H88.2286V19.0977Z" fill="black"/>
<path d="M94.8707 19.0977H91.5496V22.4188H94.8707V19.0977Z" fill="black"/>
<path d="M101.513 19.0977H98.1917V22.4188H101.513V19.0977Z" fill="black"/>
<path d="M104.834 19.0977H101.513V22.4188H104.834V19.0977Z" fill="black"/>
<path d="M108.155 19.0977H104.834V22.4188H108.155V19.0977Z" fill="black"/>
<path d="M114.797 19.0977H111.476V22.4188H114.797V19.0977Z" fill="black"/>
<path d="M8.52426 22.4188H5.20325V25.7398H8.52426V22.4188Z" fill="black"/>
<path d="M28.4504 22.4188H25.1293V25.7398H28.4504V22.4188Z" fill="black"/>
<path d="M35.0924 22.4188H31.7714V25.7398H35.0924V22.4188Z" fill="black"/>
<path d="M38.4134 22.4188H35.0924V25.7398H38.4134V22.4188Z" fill="black"/>
<path d="M41.7344 22.4188H38.4134V25.7398H41.7344V22.4188Z" fill="black"/>
<path d="M45.0554 22.4188H41.7344V25.7398H45.0554V22.4188Z" fill="black"/>
<path d="M48.3764 22.4188H45.0554V25.7398H48.3764V22.4188Z" fill="black"/>
<path d="M51.6975 22.4188H48.3764V25.7398H51.6975V22.4188Z" fill="black"/>
<path d="M64.9815 22.4188H61.6605V25.7398H64.9815V22.4188Z" fill="black"/>
<path d="M78.2656 22.4188H74.9446V25.7398H78.2656V22.4188Z" fill="black"/>
<path d="M81.5866 22.4188H78.2656V25.7398H81.5866V22.4188Z" fill="black"/>
<path d="M84.9076 22.4188H81.5866V25.7398H84.9076V22.4188Z" fill="black"/>
<path d="M88.2286 22.4188H84.9076V25.7398H88.2286V22.4188Z" fill="black"/>
<path d="M94.8707 22.4188H91.5496V25.7398H94.8707V22.4188Z" fill="black"/>
<path d="M114.797 22.4188H111.476V25.7398H114.797V22.4188Z" fill="black"/>
<path d="M8.52426 25.7398H5.20325V29.0608H8.52426V25.7398Z" fill="black"/>
<path d="M11.8453 25.7398H8.52426V29.0608H11.8453V25.7398Z" fill="black"/>
<path d="M15.1663 25.7398H11.8453V29.0608H15.1663V25.7398Z" fill="black"/>
<path d="M18.4873 25.7398H15.1663V29.0608H18.4873V25.7398Z" fill="black"/>
<path d="M21.8083 25.7398H18.4873V29.0608H21.8083V25.7398Z" fill="black"/>
<path d="M25.1293 25.7398H21.8083V29.0608H25.1293V25.7398Z" fill="black"/>
<path d="M28.4504 25.7398H25.1293V29.0608H28.4504V25.7398Z" fill="black"/>
<path d="M35.0924 25.7398H31.7714V29.0608H35.0924V25.7398Z" fill="black"/>
<path d="M41.7344 25.7398H38.4134V29.0608H41.7344V25.7398Z" fill="black"/>
<path d="M48.3764 25.7398H45.0554V29.0608H48.3764V25.7398Z" fill="black"/>
<path d="M55.0185 25.7398H51.6975V29.0608H55.0185V25.7398Z" fill="black"/>
<path d="M61.6605 25.7398H58.3395V29.0608H61.6605V25.7398Z" fill="black"/>
<path d="M68.3025 25.7398H64.9815V29.0608H68.3025V25.7398Z" fill="black"/>
<path d="M74.9446 25.7398H71.6235V29.0608H74.9446V25.7398Z" fill="black"/>
<path d="M81.5866 25.7398H78.2656V29.0608H81.5866V25.7398Z" fill="black"/>
<path d="M88.2286 25.7398H84.9076V29.0608H88.2286V25.7398Z" fill="black"/>
<path d="M94.8707 25.7398H91.5496V29.0608H94.8707V25.7398Z" fill="black"/>
<path d="M98.1917 25.7398H94.8707V29.0608H98.1917V25.7398Z" fill="black"/>
<path d="M101.513 25.7398H98.1917V29.0608H101.513V25.7398Z" fill="black"/>
<path d="M104.834 25.7398H101.513V29.0608H104.834V25.7398Z" fill="black"/>
<path d="M108.155 25.7398H104.834V29.0608H108.155V25.7398Z" fill="black"/>
<path d="M111.476 25.7398H108.155V29.0608H111.476V25.7398Z" fill="black"/>
<path d="M114.797 25.7398H111.476V29.0608H114.797V25.7398Z" fill="black"/>
<path d="M35.0924 29.0608H31.7714V32.3818H35.0924V29.0608Z" fill="black"/>
<path d="M38.4134 29.0608H35.0924V32.3818H38.4134V29.0608Z" fill="black"/>
<path d="M45.0554 29.0608H41.7344V32.3818H45.0554V29.0608Z" fill="black"/>
<path d="M48.3764 29.0608H45.0554V32.3818H48.3764V29.0608Z" fill="black"/>
<path d="M55.0185 29.0608H51.6975V32.3818H55.0185V29.0608Z" fill="black"/>
<path d="M61.6605 29.0608H58.3395V32.3818H61.6605V29.0608Z" fill="black"/>
<path d="M64.9815 29.0608H61.6605V32.3818H64.9815V29.0608Z" fill="black"/>
<path d="M71.6235 29.0608H68.3025L68.3025 32.3818H71.6235V29.0608Z" fill="black"/>
<path d="M74.9446 29.0608H71.6235V32.3818H74.9446V29.0608Z" fill="black"/>
<path d="M78.2656 29.0608H74.9446V32.3818H78.2656V29.0608Z" fill="black"/>
<path d="M84.9076 29.0608H81.5866V32.3818H84.9076V29.0608Z" fill="black"/>
<path d="M88.2286 29.0608H84.9076V32.3818H88.2286V29.0608Z" fill="black"/>
<path d="M8.52426 32.3818H5.20325V35.7028H8.52426V32.3818Z" fill="black"/>
<path d="M11.8453 32.3818H8.52426V35.7028H11.8453V32.3818Z" fill="black"/>
<path d="M15.1663 32.3818H11.8453V35.7028H15.1663V32.3818Z" fill="black"/>
<path d="M21.8083 32.3818H18.4873V35.7028H21.8083V32.3818Z" fill="black"/>
<path d="M28.4504 32.3818H25.1293V35.7028H28.4504V32.3818Z" fill="black"/>
<path d="M35.0924 32.3818H31.7714V35.7028H35.0924V32.3818Z" fill="black"/>
<path d="M38.4134 32.3818H35.0924V35.7028H38.4134V32.3818Z" fill="black"/>
<path d="M45.0554 32.3818H41.7344V35.7028H45.0554V32.3818Z" fill="black"/>
<path d="M48.3764 32.3818H45.0554V35.7028H48.3764V32.3818Z" fill="black"/>
<path d="M61.6605 32.3818H58.3395V35.7028H61.6605V32.3818Z" fill="black"/>
<path d="M74.9446 32.3818H71.6235V35.7028H74.9446V32.3818Z" fill="black"/>
<path d="M81.5866 32.3818H78.2656V35.7028H81.5866V32.3818Z" fill="black"/>
<path d="M84.9076 32.3818H81.5866V35.7028H84.9076V32.3818Z" fill="black"/>
<path d="M91.5496 32.3818H88.2286V35.7028H91.5496V32.3818Z" fill="black"/>
<path d="M94.8707 32.3818H91.5496V35.7028H94.8707V32.3818Z" fill="black"/>
<path d="M98.1917 32.3818H94.8707V35.7028H98.1917V32.3818Z" fill="black"/>
<path d="M101.513 32.3818H98.1917V35.7028H101.513V32.3818Z" fill="black"/>
<path d="M104.834 32.3818H101.513V35.7028H104.834V32.3818Z" fill="black"/>
<path d="M114.797 32.3818H111.476V35.7028H114.797V32.3818Z" fill="black"/>
<path d="M8.52426 35.7028H5.20325V39.0238H8.52426V35.7028Z" fill="black"/>
<path d="M11.8453 35.7028H8.52426V39.0238H11.8453V35.7028Z" fill="black"/>
<path d="M21.8083 35.7028H18.4873V39.0238H21.8083V35.7028Z" fill="black"/>
<path d="M31.7714 35.7028H28.4504V39.0238H31.7714V35.7028Z" fill="black"/>
<path d="M41.7344 35.7028H38.4134V39.0238H41.7344V35.7028Z" fill="black"/>
<path d="M55.0185 35.7028H51.6975V39.0238H55.0185V35.7028Z" fill="black"/>
<path d="M58.3395 35.7028H55.0185V39.0238H58.3395V35.7028Z" fill="black"/>
<path d="M64.9815 35.7028H61.6605V39.0238H64.9815V35.7028Z" fill="black"/>
<path d="M74.9446 35.7028H71.6235V39.0238H74.9446V35.7028Z" fill="black"/>
<path d="M78.2656 35.7028H74.9446V39.0238H78.2656V35.7028Z" fill="black"/>
<path d="M84.9076 35.7028H81.5866V39.0238H84.9076V35.7028Z" fill="black"/>
<path d="M91.5496 35.7028H88.2286V39.0238H91.5496V35.7028Z" fill="black"/>
<path d="M98.1917 35.7028H94.8707V39.0238H98.1917V35.7028Z" fill="black"/>
<path d="M104.834 35.7028H101.513V39.0238H104.834V35.7028Z" fill="black"/>
<path d="M111.476 35.7028H108.155V39.0238H111.476V35.7028Z" fill="black"/>
<path d="M8.52426 39.0238H5.20325V42.3449H8.52426V39.0238Z" fill="black"/>
<path d="M11.8453 39.0238H8.52426V42.3449H11.8453V39.0238Z" fill="black"/>
<path d="M15.1663 39.0238H11.8453V42.3449H15.1663V39.0238Z" fill="black"/>
<path d="M28.4504 39.0238H25.1293V42.3449H28.4504V39.0238Z" fill="black"/>
<path d="M31.7714 39.0238H28.4504V42.3449H31.7714V39.0238Z" fill="black"/>
<path d="M35.0924 39.0238H31.7714V42.3449H35.0924V39.0238Z" fill="black"/>
<path d="M41.7344 39.0238H38.4134V42.3449H41.7344V39.0238Z" fill="black"/>
<path d="M45.0554 39.0238H41.7344V42.3449H45.0554V39.0238Z" fill="black"/>
<path d="M48.3764 39.0238H45.0554V42.3449H48.3764V39.0238Z" fill="black"/>
<path d="M55.0185 39.0238H51.6975V42.3449H55.0185V39.0238Z" fill="black"/>
<path d="M64.9815 39.0238H61.6605V42.3449H64.9815V39.0238Z" fill="black"/>
<path d="M68.3025 39.0238H64.9815V42.3449H68.3025V39.0238Z" fill="black"/>
<path d="M71.6235 39.0238H68.3025V42.3449H71.6235V39.0238Z" fill="black"/>
<path d="M74.9446 39.0238H71.6235V42.3449H74.9446V39.0238Z" fill="black"/>
<path d="M81.5866 39.0238H78.2656V42.3449H81.5866V39.0238Z" fill="black"/>
<path d="M88.2286 39.0238H84.9076V42.3449H88.2286V39.0238Z" fill="black"/>
<path d="M98.1917 39.0238H94.8707V42.3449H98.1917V39.0238Z" fill="black"/>
<path d="M101.513 39.0238H98.1917V42.3449H101.513V39.0238Z" fill="black"/>
<path d="M111.476 39.0238H108.155V42.3449H111.476V39.0238Z" fill="black"/>
<path d="M8.52426 42.3449H5.20325V45.6659H8.52426V42.3449Z" fill="black"/>
<path d="M11.8453 42.3449H8.52426V45.6659H11.8453V42.3449Z" fill="black"/>
<path d="M15.1663 42.3449H11.8453V45.6659H15.1663V42.3449Z" fill="black"/>
<path d="M18.4873 42.3449H15.1663V45.6659H18.4873V42.3449Z" fill="black"/>
<path d="M25.1293 42.3449H21.8083V45.6659H25.1293V42.3449Z" fill="black"/>
<path d="M41.7344 42.3449H38.4134V45.6659H41.7344V42.3449Z" fill="black"/>
<path d="M48.3764 42.3449H45.0554V45.6659H48.3764V42.3449Z" fill="black"/>
<path d="M55.0185 42.3449H51.6975V45.6659H55.0185V42.3449Z" fill="black"/>
<path d="M61.6605 42.3449H58.3395V45.6659H61.6605V42.3449Z" fill="black"/>
<path d="M64.9815 42.3449H61.6605V45.6659H64.9815V42.3449Z" fill="black"/>
<path d="M68.3025 42.3449H64.9815V45.6659H68.3025V42.3449Z" fill="black"/>
<path d="M74.9446 42.3449H71.6235V45.6659H74.9446V42.3449Z" fill="black"/>
<path d="M88.2286 42.3449H84.9076V45.6659H88.2286V42.3449Z" fill="black"/>
<path d="M104.834 42.3449H101.513V45.6659H104.834V42.3449Z" fill="black"/>
<path d="M108.155 42.3449H104.834V45.6659H108.155V42.3449Z" fill="black"/>
<path d="M8.52426 45.6659H5.20325V48.9869H8.52426V45.6659Z" fill="black"/>
<path d="M11.8453 45.6659H8.52426V48.9869H11.8453V45.6659Z" fill="black"/>
<path d="M15.1663 45.6659H11.8453V48.9869H15.1663V45.6659Z" fill="black"/>
<path d="M21.8083 45.6659H18.4873V48.9869H21.8083V45.6659Z" fill="black"/>
<path d="M28.4504 45.6659H25.1293V48.9869H28.4504V45.6659Z" fill="black"/>
<path d="M41.7344 45.6659H38.4134V48.9869H41.7344V45.6659Z" fill="black"/>
<path d="M48.3764 45.6659H45.0554V48.9869H48.3764V45.6659Z" fill="black"/>
<path d="M51.6975 45.6659H48.3764V48.9869H51.6975V45.6659Z" fill="black"/>
<path d="M55.0185 45.6659H51.6975V48.9869H55.0185V45.6659Z" fill="black"/>
<path d="M68.3025 45.6659H64.9815V48.9869H68.3025V45.6659Z" fill="black"/>
<path d="M71.6235 45.6659H68.3025V48.9869H71.6235V45.6659Z" fill="black"/>
<path d="M74.9446 45.6659H71.6235V48.9869H74.9446V45.6659Z" fill="black"/>
<path d="M91.5496 45.6659H88.2286V48.9869H91.5496V45.6659Z" fill="black"/>
<path d="M98.1917 45.6659H94.8707V48.9869H98.1917V45.6659Z" fill="black"/>
<path d="M108.155 45.6659H104.834V48.9869H108.155V45.6659Z" fill="black"/>
<path d="M31.7714 48.9869H28.4504V52.3079H31.7714V48.9869Z" fill="black"/>
<path d="M48.3764 48.9869H45.0554V52.3079H48.3764V48.9869Z" fill="black"/>
<path d="M51.6975 48.9869H48.3764V52.3079H51.6975V48.9869Z" fill="black"/>
<path d="M58.3395 48.9869H55.0185V52.3079H58.3395V48.9869Z" fill="black"/>
<path d="M61.6605 48.9869H58.3395V52.3079H61.6605V48.9869Z" fill="black"/>
<path d="M64.9815 48.9869H61.6605V52.3079H64.9815V48.9869Z" fill="black"/>
<path d="M68.3025 48.9869H64.9815V52.3079H68.3025V48.9869Z" fill="black"/>
<path d="M74.9446 48.9869H71.6235V52.3079H74.9446V48.9869Z" fill="black"/>
<path d="M81.5866 48.9869H78.2656V52.3079H81.5866V48.9869Z" fill="black"/>
<path d="M84.9076 48.9869H81.5866V52.3079H84.9076V48.9869Z" fill="black"/>
<path d="M91.5496 48.9869H88.2286V52.3079H91.5496V48.9869Z" fill="black"/>
<path d="M94.8707 48.9869H91.5496V52.3079H94.8707V48.9869Z" fill="black"/>
<path d="M98.1917 48.9869H94.8707V52.3079H98.1917V48.9869Z" fill="black"/>
<path d="M101.513 48.9869H98.1917V52.3079H101.513V48.9869Z" fill="black"/>
<path d="M108.155 48.9869H104.834V52.3079H108.155V48.9869Z" fill="black"/>
<path d="M111.476 48.9869H108.155V52.3079H111.476V48.9869Z" fill="black"/>
<path d="M114.797 48.9869H111.476V52.3079H114.797V48.9869Z" fill="black"/>
<path d="M8.52426 52.3079H5.20325V55.6289H8.52426V52.3079Z" fill="black"/>
<path d="M21.8083 52.3079H18.4873V55.6289H21.8083V52.3079Z" fill="black"/>
<path d="M28.4504 52.3079H25.1293V55.6289H28.4504V52.3079Z" fill="black"/>
<path d="M35.0924 52.3079H31.7714V55.6289H35.0924V52.3079Z" fill="black"/>
<path d="M38.4134 52.3079H35.0924V55.6289H38.4134V52.3079Z" fill="black"/>
<path d="M41.7344 52.3079H38.4134V55.6289H41.7344V52.3079Z" fill="black"/>
<path d="M45.0554 52.3079H41.7344V55.6289H45.0554V52.3079Z" fill="black"/>
<path d="M48.3764 52.3079H45.0554V55.6289H48.3764V52.3079Z" fill="black"/>
<path d="M55.0185 52.3079H51.6975V55.6289H55.0185V52.3079Z" fill="black"/>
<path d="M61.6605 52.3079H58.3395V55.6289H61.6605V52.3079Z" fill="black"/>
<path d="M64.9815 52.3079H61.6605V55.6289H64.9815V52.3079Z" fill="black"/>
<path d="M71.6235 52.3079H68.3025L68.3025 55.6289H71.6235V52.3079Z" fill="black"/>
<path d="M74.9446 52.3079H71.6235V55.6289H74.9446V52.3079Z" fill="black"/>
<path d="M84.9076 52.3079H81.5866V55.6289H84.9076V52.3079Z" fill="black"/>
<path d="M88.2286 52.3079H84.9076V55.6289H88.2286V52.3079Z" fill="black"/>
<path d="M94.8707 52.3079H91.5496V55.6289H94.8707V52.3079Z" fill="black"/>
<path d="M98.1917 52.3079H94.8707V55.6289H98.1917V52.3079Z" fill="black"/>
<path d="M104.834 52.3079H101.513V55.6289H104.834V52.3079Z" fill="black"/>
<path d="M111.476 52.3079H108.155V55.6289H111.476V52.3079Z" fill="black"/>
<path d="M114.797 52.3079H111.476V55.6289H114.797V52.3079Z" fill="black"/>
<path d="M15.1663 55.6289H11.8453V58.9499H15.1663V55.6289Z" fill="black"/>
<path d="M21.8083 55.6289H18.4873V58.9499H21.8083V55.6289Z" fill="black"/>
<path d="M35.0924 55.6289H31.7714V58.9499H35.0924V55.6289Z" fill="black"/>
<path d="M38.4134 55.6289H35.0924V58.9499H38.4134V55.6289Z" fill="black"/>
<path d="M41.7344 55.6289H38.4134V58.9499H41.7344V55.6289Z" fill="black"/>
<path d="M48.3764 55.6289H45.0554V58.9499H48.3764V55.6289Z" fill="black"/>
<path d="M58.3395 55.6289H55.0185V58.9499H58.3395V55.6289Z" fill="black"/>
<path d="M64.9815 55.6289H61.6605V58.9499H64.9815V55.6289Z" fill="black"/>
<path d="M68.3025 55.6289H64.9815V58.9499H68.3025L68.3025 55.6289Z" fill="black"/>
<path d="M71.6235 55.6289H68.3025L68.3025 58.9499H71.6235V55.6289Z" fill="black"/>
<path d="M74.9446 55.6289H71.6235V58.9499H74.9446V55.6289Z" fill="black"/>
<path d="M81.5866 55.6289H78.2656V58.9499H81.5866V55.6289Z" fill="black"/>
<path d="M88.2286 55.6289H84.9076V58.9499H88.2286V55.6289Z" fill="black"/>
<path d="M91.5496 55.6289H88.2286V58.9499H91.5496V55.6289Z" fill="black"/>
<path d="M94.8707 55.6289H91.5496V58.9499H94.8707V55.6289Z" fill="black"/>
<path d="M98.1917 55.6289H94.8707V58.9499H98.1917V55.6289Z" fill="black"/>
<path d="M111.476 55.6289H108.155V58.9499H111.476V55.6289Z" fill="black"/>
<path d="M15.1663 58.9499H11.8453V62.2709H15.1663V58.9499Z" fill="black"/>
<path d="M28.4504 58.9499H25.1293V62.2709H28.4504V58.9499Z" fill="black"/>
<path d="M35.0924 58.9499H31.7714V62.2709H35.0924V58.9499Z" fill="black"/>
<path d="M38.4134 58.9499H35.0924V62.2709H38.4134V58.9499Z" fill="black"/>
<path d="M41.7344 58.9499H38.4134V62.2709H41.7344V58.9499Z" fill="black"/>
<path d="M48.3764 58.9499H45.0554V62.2709H48.3764V58.9499Z" fill="black"/>
<path d="M51.6975 58.9499H48.3764V62.2709H51.6975V58.9499Z" fill="black"/>
<path d="M55.0185 58.9499H51.6975V62.2709H55.0185V58.9499Z" fill="black"/>
<path d="M68.3025 58.9499H64.9815V62.2709H68.3025V58.9499Z" fill="black"/>
<path d="M78.2656 58.9499H74.9446V62.2709H78.2656V58.9499Z" fill="black"/>
<path d="M81.5866 58.9499H78.2656V62.2709H81.5866V58.9499Z" fill="black"/>
<path d="M84.9076 58.9499H81.5866V62.2709H84.9076V58.9499Z" fill="black"/>
<path d="M91.5496 58.9499H88.2286V62.2709H91.5496V58.9499Z" fill="black"/>
<path d="M108.155 58.9499H104.834V62.2709H108.155V58.9499Z" fill="black"/>
<path d="M111.476 58.9499H108.155V62.2709H111.476V58.9499Z" fill="black"/>
<path d="M114.797 58.9499H111.476V62.2709H114.797V58.9499Z" fill="black"/>
<path d="M11.8453 62.2709H8.52426V65.592H11.8453V62.2709Z" fill="black"/>
<path d="M15.1663 62.2709H11.8453V65.592H15.1663V62.2709Z" fill="black"/>
<path d="M21.8083 62.2709H18.4873V65.592H21.8083V62.2709Z" fill="black"/>
<path d="M25.1293 62.2709H21.8083V65.592H25.1293V62.2709Z" fill="black"/>
<path d="M35.0924 62.2709H31.7714V65.592H35.0924V62.2709Z" fill="black"/>
<path d="M41.7344 62.2709H38.4134V65.592H41.7344V62.2709Z" fill="black"/>
<path d="M45.0554 62.2709H41.7344V65.592H45.0554V62.2709Z" fill="black"/>
<path d="M48.3764 62.2709H45.0554V65.592H48.3764V62.2709Z" fill="black"/>
<path d="M51.6975 62.2709H48.3764V65.592H51.6975V62.2709Z" fill="black"/>
<path d="M71.6235 62.2709H68.3025L68.3025 65.592H71.6235V62.2709Z" fill="black"/>
<path d="M84.9076 62.2709H81.5866V65.592H84.9076V62.2709Z" fill="black"/>
<path d="M101.513 62.2709H98.1917V65.592H101.513V62.2709Z" fill="black"/>
<path d="M104.834 62.2709H101.513V65.592H104.834V62.2709Z" fill="black"/>
<path d="M108.155 62.2709H104.834V65.592H108.155V62.2709Z" fill="black"/>
<path d="M114.797 62.2709H111.476V65.592H114.797V62.2709Z" fill="black"/>
<path d="M8.52426 65.592H5.20325V68.913H8.52426V65.592Z" fill="black"/>
<path d="M15.1663 65.592H11.8453V68.913H15.1663V65.592Z" fill="black"/>
<path d="M21.8083 65.592H18.4873V68.913H21.8083V65.592Z" fill="black"/>
<path d="M25.1293 65.592H21.8083V68.913H25.1293V65.592Z" fill="black"/>
<path d="M28.4504 65.592H25.1293V68.913H28.4504V65.592Z" fill="black"/>
<path d="M41.7344 65.592H38.4134V68.913H41.7344V65.592Z" fill="black"/>
<path d="M48.3764 65.592H45.0554V68.913H48.3764V65.592Z" fill="black"/>
<path d="M55.0185 65.592H51.6975V68.913H55.0185V65.592Z" fill="black"/>
<path d="M71.6235 65.592H68.3025V68.913H71.6235V65.592Z" fill="black"/>
<path d="M78.2656 65.592H74.9446V68.913H78.2656V65.592Z" fill="black"/>
<path d="M81.5866 65.592H78.2656V68.913H81.5866V65.592Z" fill="black"/>
<path d="M94.8707 65.592H91.5496V68.913H94.8707V65.592Z" fill="black"/>
<path d="M101.513 65.592H98.1917V68.913H101.513V65.592Z" fill="black"/>
<path d="M111.476 65.592H108.155V68.913H111.476V65.592Z" fill="black"/>
<path d="M11.8453 68.913H8.52426V72.234H11.8453V68.913Z" fill="black"/>
<path d="M15.1663 68.913H11.8453V72.234H15.1663V68.913Z" fill="black"/>
<path d="M18.4873 68.913H15.1663V72.234H18.4873V68.913Z" fill="black"/>
<path d="M31.7714 68.913L28.4504 68.913V72.234H31.7714V68.913Z" fill="black"/>
<path d="M35.0924 68.913H31.7714V72.234H35.0924V68.913Z" fill="black"/>
<path d="M38.4134 68.913L35.0924 68.913V72.234H38.4134V68.913Z" fill="black"/>
<path d="M48.3764 68.913H45.0554V72.234H48.3764V68.913Z" fill="black"/>
<path d="M51.6975 68.913H48.3764V72.234H51.6975V68.913Z" fill="black"/>
<path d="M58.3395 68.913L55.0185 68.913V72.234H58.3395V68.913Z" fill="black"/>
<path d="M61.6605 68.913H58.3395V72.234H61.6605V68.913Z" fill="black"/>
<path d="M64.9815 68.913H61.6605V72.234H64.9815V68.913Z" fill="black"/>
<path d="M68.3025 68.913L64.9815 68.913V72.234H68.3025L68.3025 68.913Z" fill="black"/>
<path d="M71.6235 68.913H68.3025L68.3025 72.234H71.6235V68.913Z" fill="black"/>
<path d="M88.2286 68.913H84.9076V72.234H88.2286V68.913Z" fill="black"/>
<path d="M94.8707 68.913H91.5496V72.234H94.8707V68.913Z" fill="black"/>
<path d="M11.8453 72.234H8.52426V75.555H11.8453V72.234Z" fill="black"/>
<path d="M15.1663 72.234H11.8453V75.555H15.1663V72.234Z" fill="black"/>
<path d="M21.8083 72.234H18.4873V75.555H21.8083V72.234Z" fill="black"/>
<path d="M25.1293 72.234H21.8083V75.555H25.1293V72.234Z" fill="black"/>
<path d="M28.4504 72.234H25.1293V75.555H28.4504V72.234Z" fill="black"/>
<path d="M31.7714 72.234H28.4504V75.555H31.7714V72.234Z" fill="black"/>
<path d="M41.7344 72.234H38.4134V75.555H41.7344V72.234Z" fill="black"/>
<path d="M48.3764 72.234H45.0554V75.555H48.3764V72.234Z" fill="black"/>
<path d="M64.9815 72.234H61.6605V75.555H64.9815V72.234Z" fill="black"/>
<path d="M68.3025 72.234H64.9815V75.555H68.3025V72.234Z" fill="black"/>
<path d="M74.9446 72.234H71.6235V75.555H74.9446V72.234Z" fill="black"/>
<path d="M78.2656 72.234H74.9446V75.555H78.2656V72.234Z" fill="black"/>
<path d="M88.2286 72.234H84.9076V75.555H88.2286V72.234Z" fill="black"/>
<path d="M98.1917 72.234H94.8707V75.555H98.1917V72.234Z" fill="black"/>
<path d="M101.513 72.234H98.1917V75.555H101.513V72.234Z" fill="black"/>
<path d="M104.834 72.234H101.513V75.555H104.834V72.234Z" fill="black"/>
<path d="M108.155 72.234H104.834V75.555H108.155V72.234Z" fill="black"/>
<path d="M11.8453 75.555H8.52426V78.876H11.8453V75.555Z" fill="black"/>
<path d="M21.8083 75.555H18.4873V78.876H21.8083V75.555Z" fill="black"/>
<path d="M41.7344 75.555H38.4134V78.876H41.7344V75.555Z" fill="black"/>
<path d="M48.3764 75.555H45.0554V78.876H48.3764V75.555Z" fill="black"/>
<path d="M55.0185 75.555H51.6975V78.876H55.0185V75.555Z" fill="black"/>
<path d="M64.9815 75.555H61.6605V78.876H64.9815V75.555Z" fill="black"/>
<path d="M71.6235 75.555H68.3025L68.3025 78.876H71.6235V75.555Z" fill="black"/>
<path d="M74.9446 75.555H71.6235V78.876H74.9446V75.555Z" fill="black"/>
<path d="M78.2656 75.555H74.9446V78.876H78.2656V75.555Z" fill="black"/>
<path d="M81.5866 75.555H78.2656V78.876H81.5866V75.555Z" fill="black"/>
<path d="M94.8707 75.555H91.5496V78.876H94.8707V75.555Z" fill="black"/>
<path d="M101.513 75.555H98.1917V78.876H101.513V75.555Z" fill="black"/>
<path d="M108.155 75.555H104.834V78.876H108.155V75.555Z" fill="black"/>
<path d="M8.52426 78.876H5.20325V82.197H8.52426V78.876Z" fill="black"/>
<path d="M11.8453 78.876H8.52426V82.197H11.8453V78.876Z" fill="black"/>
<path d="M15.1663 78.876H11.8453V82.197H15.1663V78.876Z" fill="black"/>
<path d="M25.1293 78.876H21.8083V82.197H25.1293V78.876Z" fill="black"/>
<path d="M28.4504 78.876H25.1293V82.197H28.4504V78.876Z" fill="black"/>
<path d="M48.3764 78.876H45.0554V82.197H48.3764V78.876Z" fill="black"/>
<path d="M51.6975 78.876H48.3764V82.197H51.6975V78.876Z" fill="black"/>
<path d="M58.3395 78.876H55.0185V82.197H58.3395V78.876Z" fill="black"/>
<path d="M61.6605 78.876H58.3395V82.197H61.6605V78.876Z" fill="black"/>
<path d="M64.9815 78.876H61.6605V82.197H64.9815V78.876Z" fill="black"/>
<path d="M78.2656 78.876H74.9446V82.197H78.2656V78.876Z" fill="black"/>
<path d="M84.9076 78.876H81.5866V82.197H84.9076V78.876Z" fill="black"/>
<path d="M94.8707 78.876H91.5496V82.197H94.8707V78.876Z" fill="black"/>
<path d="M111.476 78.876H108.155V82.197H111.476V78.876Z" fill="black"/>
<path d="M114.797 78.876H111.476V82.197H114.797V78.876Z" fill="black"/>
<path d="M15.1663 82.197H11.8453V85.518H15.1663V82.197Z" fill="black"/>
<path d="M18.4873 82.197H15.1663V85.518H18.4873V82.197Z" fill="black"/>
<path d="M21.8083 82.197H18.4873V85.518H21.8083V82.197Z" fill="black"/>
<path d="M25.1293 82.197H21.8083V85.518H25.1293V82.197Z" fill="black"/>
<path d="M38.4134 82.197H35.0924V85.518H38.4134V82.197Z" fill="black"/>
<path d="M41.7344 82.197H38.4134V85.518H41.7344V82.197Z" fill="black"/>
<path d="M55.0185 82.197H51.6975V85.518H55.0185V82.197Z" fill="black"/>
<path d="M58.3395 82.197H55.0185V85.518H58.3395V82.197Z" fill="black"/>
<path d="M68.3025 82.197H64.9815V85.518H68.3025V82.197Z" fill="black"/>
<path d="M81.5866 82.197H78.2656V85.518H81.5866V82.197Z" fill="black"/>
<path d="M84.9076 82.197H81.5866V85.518H84.9076V82.197Z" fill="black"/>
<path d="M88.2286 82.197H84.9076V85.518H88.2286V82.197Z" fill="black"/>
<path d="M94.8707 82.197H91.5496V85.518H94.8707V82.197Z" fill="black"/>
<path d="M101.513 82.197H98.1917V85.518H101.513V82.197Z" fill="black"/>
<path d="M114.797 82.197H111.476V85.518H114.797V82.197Z" fill="black"/>
<path d="M8.52426 85.518H5.20325V88.8391H8.52426V85.518Z" fill="black"/>
<path d="M11.8453 85.518H8.52426V88.8391H11.8453V85.518Z" fill="black"/>
<path d="M21.8083 85.518H18.4873V88.8391H21.8083V85.518Z" fill="black"/>
<path d="M28.4504 85.518H25.1293V88.8391H28.4504V85.518Z" fill="black"/>
<path d="M31.7714 85.518H28.4504V88.8391H31.7714V85.518Z" fill="black"/>
<path d="M35.0924 85.518H31.7714V88.8391H35.0924V85.518Z" fill="black"/>
<path d="M48.3764 85.518H45.0554V88.8391H48.3764V85.518Z" fill="black"/>
<path d="M55.0185 85.518H51.6975V88.8391H55.0185V85.518Z" fill="black"/>
<path d="M61.6605 85.518H58.3395V88.8391H61.6605V85.518Z" fill="black"/>
<path d="M68.3025 85.518H64.9815V88.8391H68.3025V85.518Z" fill="black"/>
<path d="M71.6235 85.518H68.3025V88.8391H71.6235V85.518Z" fill="black"/>
<path d="M74.9446 85.518H71.6235V88.8391H74.9446V85.518Z" fill="black"/>
<path d="M78.2656 85.518H74.9446V88.8391H78.2656V85.518Z" fill="black"/>
<path d="M88.2286 85.518H84.9076V88.8391H88.2286V85.518Z" fill="black"/>
<path d="M91.5496 85.518H88.2286V88.8391H91.5496V85.518Z" fill="black"/>
<path d="M94.8707 85.518H91.5496V88.8391H94.8707V85.518Z" fill="black"/>
<path d="M98.1917 85.518H94.8707V88.8391H98.1917V85.518Z" fill="black"/>
<path d="M101.513 85.518H98.1917V88.8391H101.513V85.518Z" fill="black"/>
<path d="M108.155 85.518H104.834V88.8391H108.155V85.518Z" fill="black"/>
<path d="M114.797 85.518H111.476V88.8391H114.797V85.518Z" fill="black"/>
<path d="M35.0924 88.8391H31.7714V92.1601H35.0924V88.8391Z" fill="black"/>
<path d="M41.7344 88.8391H38.4134V92.1601H41.7344V88.8391Z" fill="black"/>
<path d="M51.6975 88.8391H48.3764V92.1601H51.6975V88.8391Z" fill="black"/>
<path d="M61.6605 88.8391H58.3395V92.1601H61.6605V88.8391Z" fill="black"/>
<path d="M78.2656 88.8391H74.9446V92.1601H78.2656V88.8391Z" fill="black"/>
<path d="M81.5866 88.8391H78.2656V92.1601H81.5866V88.8391Z" fill="black"/>
<path d="M88.2286 88.8391H84.9076V92.1601H88.2286V88.8391Z" fill="black"/>
<path d="M101.513 88.8391H98.1917V92.1601H101.513V88.8391Z" fill="black"/>
<path d="M104.834 88.8391H101.513V92.1601H104.834V88.8391Z" fill="black"/>
<path d="M108.155 88.8391H104.834V92.1601H108.155V88.8391Z" fill="black"/>
<path d="M111.476 88.8391H108.155V92.1601H111.476V88.8391Z" fill="black"/>
<path d="M114.797 88.8391H111.476V92.1601H114.797V88.8391Z" fill="black"/>
<path d="M8.52426 92.1601H5.20325V95.4811H8.52426V92.1601Z" fill="black"/>
<path d="M11.8453 92.1601H8.52426V95.4811H11.8453V92.1601Z" fill="black"/>
<path d="M15.1663 92.1601H11.8453V95.4811H15.1663V92.1601Z" fill="black"/>
<path d="M18.4873 92.1601H15.1663V95.4811H18.4873V92.1601Z" fill="black"/>
<path d="M21.8083 92.1601H18.4873V95.4811H21.8083V92.1601Z" fill="black"/>
<path d="M25.1293 92.1601H21.8083V95.4811H25.1293V92.1601Z" fill="black"/>
<path d="M28.4504 92.1601H25.1293V95.4811H28.4504V92.1601Z" fill="black"/>
<path d="M41.7344 92.1601H38.4134V95.4811H41.7344V92.1601Z" fill="black"/>
<path d="M48.3764 92.1601H45.0554V95.4811H48.3764V92.1601Z" fill="black"/>
<path d="M55.0185 92.1601H51.6975V95.4811H55.0185V92.1601Z" fill="black"/>
<path d="M61.6605 92.1601H58.3395V95.4811H61.6605V92.1601Z" fill="black"/>
<path d="M84.9076 92.1601H81.5866V95.4811H84.9076V92.1601Z" fill="black"/>
<path d="M88.2286 92.1601H84.9076V95.4811H88.2286V92.1601Z" fill="black"/>
<path d="M94.8707 92.1601H91.5496V95.4811H94.8707V92.1601Z" fill="black"/>
<path d="M101.513 92.1601H98.1917V95.4811H101.513V92.1601Z" fill="black"/>
<path d="M108.155 92.1601H104.834V95.4811H108.155V92.1601Z" fill="black"/>
<path d="M111.476 92.1601H108.155V95.4811H111.476V92.1601Z" fill="black"/>
<path d="M114.797 92.1601H111.476V95.4811H114.797V92.1601Z" fill="black"/>
<path d="M8.52426 95.4811H5.20325V98.8021H8.52426V95.4811Z" fill="black"/>
<path d="M28.4504 95.4811H25.1293V98.8021H28.4504V95.4811Z" fill="black"/>
<path d="M38.4134 95.4811H35.0924V98.8021H38.4134V95.4811Z" fill="black"/>
<path d="M51.6975 95.4811H48.3764V98.8021H51.6975V95.4811Z" fill="black"/>
<path d="M61.6605 95.4811H58.3395V98.8021H61.6605V95.4811Z" fill="black"/>
<path d="M64.9815 95.4811H61.6605V98.8021H64.9815V95.4811Z" fill="black"/>
<path d="M71.6235 95.4811H68.3025V98.8021H71.6235V95.4811Z" fill="black"/>
<path d="M78.2656 95.4811H74.9446V98.8021H78.2656V95.4811Z" fill="black"/>
<path d="M81.5866 95.4811H78.2656V98.8021H81.5866V95.4811Z" fill="black"/>
<path d="M88.2286 95.4811H84.9076V98.8021H88.2286V95.4811Z" fill="black"/>
<path d="M101.513 95.4811H98.1917V98.8021H101.513V95.4811Z" fill="black"/>
<path d="M8.52426 98.8021H5.20325V102.123H8.52426V98.8021Z" fill="black"/>
<path d="M15.1663 98.8021H11.8453V102.123H15.1663V98.8021Z" fill="black"/>
<path d="M18.4873 98.8021H15.1663V102.123H18.4873V98.8021Z" fill="black"/>
<path d="M21.8083 98.8021H18.4873V102.123H21.8083V98.8021Z" fill="black"/>
<path d="M28.4504 98.8021H25.1293V102.123H28.4504V98.8021Z" fill="black"/>
<path d="M35.0924 98.8021H31.7714V102.123H35.0924V98.8021Z" fill="black"/>
<path d="M38.4134 98.8021H35.0924V102.123H38.4134V98.8021Z" fill="black"/>
<path d="M45.0554 98.8021H41.7344V102.123H45.0554V98.8021Z" fill="black"/>
<path d="M58.3395 98.8021H55.0185V102.123H58.3395V98.8021Z" fill="black"/>
<path d="M61.6605 98.8021H58.3395V102.123H61.6605V98.8021Z" fill="black"/>
<path d="M64.9815 98.8021H61.6605V102.123H64.9815V98.8021Z" fill="black"/>
<path d="M68.3025 98.8021H64.9815V102.123H68.3025L68.3025 98.8021Z" fill="black"/>
<path d="M71.6235 98.8021H68.3025L68.3025 102.123H71.6235V98.8021Z" fill="black"/>
<path d="M78.2656 98.8021H74.9446V102.123H78.2656V98.8021Z" fill="black"/>
<path d="M84.9076 98.8021H81.5866V102.123H84.9076V98.8021Z" fill="black"/>
<path d="M88.2286 98.8021H84.9076V102.123H88.2286V98.8021Z" fill="black"/>
<path d="M91.5496 98.8021H88.2286V102.123H91.5496V98.8021Z" fill="black"/>
<path d="M94.8707 98.8021H91.5496V102.123H94.8707V98.8021Z" fill="black"/>
<path d="M98.1917 98.8021H94.8707V102.123H98.1917V98.8021Z" fill="black"/>
<path d="M101.513 98.8021H98.1917V102.123H101.513V98.8021Z" fill="black"/>
<path d="M108.155 98.8021H104.834V102.123H108.155V98.8021Z" fill="black"/>
<path d="M114.797 98.8021H111.476V102.123H114.797V98.8021Z" fill="black"/>
<path d="M8.52426 102.123H5.20325V105.444H8.52426V102.123Z" fill="black"/>
<path d="M15.1663 102.123H11.8453V105.444H15.1663V102.123Z" fill="black"/>
<path d="M18.4873 102.123H15.1663V105.444H18.4873V102.123Z" fill="black"/>
<path d="M21.8083 102.123H18.4873V105.444H21.8083V102.123Z" fill="black"/>
<path d="M28.4504 102.123H25.1293V105.444H28.4504V102.123Z" fill="black"/>
<path d="M48.3764 102.123H45.0554V105.444H48.3764V102.123Z" fill="black"/>
<path d="M55.0185 102.123H51.6975V105.444H55.0185V102.123Z" fill="black"/>
<path d="M58.3395 102.123H55.0185V105.444H58.3395V102.123Z" fill="black"/>
<path d="M71.6235 102.123H68.3025L68.3025 105.444H71.6235V102.123Z" fill="black"/>
<path d="M81.5866 102.123H78.2656V105.444H81.5866V102.123Z" fill="black"/>
<path d="M98.1917 102.123H94.8707V105.444H98.1917V102.123Z" fill="black"/>
<path d="M104.834 102.123H101.513V105.444H104.834V102.123Z" fill="black"/>
<path d="M108.155 102.123H104.834V105.444H108.155V102.123Z" fill="black"/>
<path d="M8.52426 105.444H5.20325V108.765H8.52426V105.444Z" fill="black"/>
<path d="M15.1663 105.444H11.8453V108.765H15.1663V105.444Z" fill="black"/>
<path d="M18.4873 105.444H15.1663V108.765H18.4873V105.444Z" fill="black"/>
<path d="M21.8083 105.444H18.4873V108.765H21.8083V105.444Z" fill="black"/>
<path d="M28.4504 105.444H25.1293V108.765H28.4504V105.444Z" fill="black"/>
<path d="M35.0924 105.444H31.7714V108.765H35.0924V105.444Z" fill="black"/>
<path d="M41.7344 105.444H38.4134V108.765H41.7344V105.444Z" fill="black"/>
<path d="M45.0554 105.444H41.7344V108.765H45.0554V105.444Z" fill="black"/>
<path d="M51.6975 105.444H48.3764V108.765H51.6975V105.444Z" fill="black"/>
<path d="M55.0185 105.444H51.6975V108.765H55.0185V105.444Z" fill="black"/>
<path d="M58.3395 105.444H55.0185V108.765H58.3395V105.444Z" fill="black"/>
<path d="M64.9815 105.444H61.6605V108.765H64.9815V105.444Z" fill="black"/>
<path d="M71.6235 105.444H68.3025V108.765H71.6235V105.444Z" fill="black"/>
<path d="M78.2656 105.444H74.9446V108.765H78.2656V105.444Z" fill="black"/>
<path d="M81.5866 105.444H78.2656V108.765H81.5866V105.444Z" fill="black"/>
<path d="M84.9076 105.444H81.5866V108.765H84.9076V105.444Z" fill="black"/>
<path d="M94.8707 105.444H91.5496V108.765H94.8707V105.444Z" fill="black"/>
<path d="M98.1917 105.444H94.8707V108.765H98.1917V105.444Z" fill="black"/>
<path d="M104.834 105.444H101.513V108.765H104.834V105.444Z" fill="black"/>
<path d="M108.155 105.444H104.834V108.765H108.155V105.444Z" fill="black"/>
<path d="M111.476 105.444H108.155V108.765H111.476V105.444Z" fill="black"/>
<path d="M8.52426 108.765H5.20325V112.086H8.52426V108.765Z" fill="black"/>
<path d="M28.4504 108.765H25.1293V112.086H28.4504V108.765Z" fill="black"/>
<path d="M35.0924 108.765H31.7714V112.086H35.0924V108.765Z" fill="black"/>
<path d="M41.7344 108.765H38.4134V112.086H41.7344V108.765Z" fill="black"/>
<path d="M48.3764 108.765H45.0554V112.086H48.3764V108.765Z" fill="black"/>
<path d="M51.6975 108.765H48.3764V112.086H51.6975V108.765Z" fill="black"/>
<path d="M61.6605 108.765H58.3395V112.086H61.6605V108.765Z" fill="black"/>
<path d="M68.3025 108.765H64.9815V112.086H68.3025L68.3025 108.765Z" fill="black"/>
<path d="M71.6235 108.765H68.3025L68.3025 112.086H71.6235V108.765Z" fill="black"/>
<path d="M81.5866 108.765H78.2656V112.086H81.5866V108.765Z" fill="black"/>
<path d="M88.2286 108.765H84.9076V112.086H88.2286V108.765Z" fill="black"/>
<path d="M91.5496 108.765H88.2286V112.086H91.5496V108.765Z" fill="black"/>
<path d="M101.513 108.765H98.1917V112.086H101.513V108.765Z" fill="black"/>
<path d="M108.155 108.765H104.834V112.086H108.155V108.765Z" fill="black"/>
<path d="M111.476 108.765H108.155V112.086H111.476V108.765Z" fill="black"/>
<path d="M8.52426 112.086H5.20325V115.407H8.52426V112.086Z" fill="black"/>
<path d="M11.8453 112.086H8.52426V115.407H11.8453V112.086Z" fill="black"/>
<path d="M15.1663 112.086H11.8453V115.407H15.1663V112.086Z" fill="black"/>
<path d="M18.4873 112.086H15.1663V115.407H18.4873V112.086Z" fill="black"/>
<path d="M21.8083 112.086H18.4873V115.407H21.8083V112.086Z" fill="black"/>
<path d="M25.1293 112.086H21.8083V115.407H25.1293V112.086Z" fill="black"/>
<path d="M28.4504 112.086H25.1293V115.407H28.4504V112.086Z" fill="black"/>
<path d="M35.0924 112.086H31.7714V115.407H35.0924V112.086Z" fill="black"/>
<path d="M41.7344 112.086H38.4134V115.407H41.7344V112.086Z" fill="black"/>
<path d="M48.3764 112.086H45.0554V115.407H48.3764V112.086Z" fill="black"/>
<path d="M58.3395 112.086H55.0185V115.407H58.3395V112.086Z" fill="black"/>
<path d="M64.9815 112.086H61.6605V115.407H64.9815V112.086Z" fill="black"/>
<path d="M68.3025 112.086H64.9815V115.407H68.3025V112.086Z" fill="black"/>
<path d="M71.6235 112.086H68.3025V115.407H71.6235V112.086Z" fill="black"/>
<path d="M78.2656 112.086H74.9446V115.407H78.2656V112.086Z" fill="black"/>
<path d="M81.5866 112.086H78.2656V115.407H81.5866V112.086Z" fill="black"/>
<path d="M84.9076 112.086H81.5866V115.407H84.9076V112.086Z" fill="black"/>
<path d="M104.834 112.086H101.513V115.407H104.834V112.086Z" fill="black"/>
<path d="M108.155 112.086H104.834V115.407H108.155V112.086Z" fill="black"/>
<path d="M111.476 112.086H108.155V115.407H111.476V112.086Z" fill="black"/>
</g>
<defs>
<clipPath id="clip0_1_1433">
<rect y="0.610352" width="120" height="120" rx="5.54913" fill="white"/>
</clipPath>
</defs>
</svg>
