<svg width="56" height="56" viewBox="0 0 56 56" fill="none" xmlns="http://www.w3.org/2000/svg">
<rect width="56" height="56" rx="28" fill="#07C226"/>
<g clip-path="url(#clip0_1_711)">
<g filter="url(#filter0_d_1_711)">
<path d="M38 17H18C17.4696 17 16.9609 17.2107 16.5858 17.5858C16.2107 17.9609 16 18.4696 16 19V26C16 32.59 19.19 36.5837 21.8663 38.7738C24.7487 41.1313 27.6163 41.9312 27.7413 41.965C27.9131 42.0118 28.0944 42.0118 28.2663 41.965C28.3913 41.9312 31.255 41.1313 34.1413 38.7738C36.81 36.5837 40 32.59 40 26V19C40 18.4696 39.7893 17.9609 39.4142 17.5858C39.0391 17.2107 38.5304 17 38 17ZM33.71 25.7075L26.71 32.7075C26.6171 32.8005 26.5068 32.8742 26.3854 32.9246C26.264 32.9749 26.1339 33.0008 26.0025 33.0008C25.8711 33.0008 25.741 32.9749 25.6196 32.9246C25.4982 32.8742 25.3879 32.8005 25.295 32.7075L22.295 29.7075C22.1074 29.5199 22.0019 29.2654 22.0019 29C22.0019 28.7346 22.1074 28.4801 22.295 28.2925C22.4826 28.1049 22.7371 27.9994 23.0025 27.9994C23.2679 27.9994 23.5224 28.1049 23.71 28.2925L26 30.5863L32.2925 24.2925C32.3854 24.1996 32.4957 24.1259 32.6171 24.0756C32.7385 24.0253 32.8686 23.9994 33 23.9994C33.1314 23.9994 33.2615 24.0253 33.3829 24.0756C33.5043 24.1259 33.6146 24.1996 33.7075 24.2925C33.8004 24.3854 33.8741 24.4957 33.9244 24.6171C33.9747 24.7385 34.0006 24.8686 34.0006 25C34.0006 25.1314 33.9747 25.2615 33.9244 25.3829C33.8741 25.5043 33.8004 25.6146 33.7075 25.7075H33.71Z" fill="white"/>
</g>
</g>
<defs>
<filter id="filter0_d_1_711" x="14" y="13" width="32" height="33.0001" filterUnits="userSpaceOnUse" color-interpolation-filters="sRGB">
<feFlood flood-opacity="0" result="BackgroundImageFix"/>
<feColorMatrix in="SourceAlpha" type="matrix" values="0 0 0 0 0 0 0 0 0 0 0 0 0 0 0 0 0 0 127 0" result="hardAlpha"/>
<feOffset dx="2"/>
<feGaussianBlur stdDeviation="2"/>
<feComposite in2="hardAlpha" operator="out"/>
<feColorMatrix type="matrix" values="0 0 0 0 0.00392157 0 0 0 0 0.239216 0 0 0 0 0.196078 0 0 0 0.2 0"/>
<feBlend mode="normal" in2="BackgroundImageFix" result="effect1_dropShadow_1_711"/>
<feBlend mode="normal" in="SourceGraphic" in2="effect1_dropShadow_1_711" result="shape"/>
</filter>
<clipPath id="clip0_1_711">
<rect width="32" height="32" fill="white" transform="translate(12 12)"/>
</clipPath>
</defs>
</svg>
