<svg width="57" height="56" viewBox="0 0 57 56" fill="none" xmlns="http://www.w3.org/2000/svg">
<rect x="0.5" width="56" height="56" rx="28" fill="#07C226"/>
<g clip-path="url(#clip0_1_718)">
<g filter="url(#filter0_d_1_718)">
<path d="M41.1668 28.0002V38.0002C41.1668 39.3263 40.64 40.598 39.7023 41.5357C38.7646 42.4734 37.4928 43.0002 36.1667 43.0002H29.1667C28.9015 43.0002 28.6472 42.8948 28.4596 42.7073C28.2721 42.5198 28.1667 42.2654 28.1667 42.0002C28.1667 41.735 28.2721 41.4806 28.4596 41.2931C28.6472 41.1056 28.9015 41.0002 29.1667 41.0002H36.1667C36.9624 41.0002 37.7255 40.6841 38.2881 40.1215C38.8507 39.5589 39.1667 38.7958 39.1668 38.0002H36.1667C35.3711 38.0002 34.608 37.6841 34.0454 37.1215C33.4828 36.5589 33.1667 35.7958 33.1667 35.0002V30.0002C33.1667 29.2045 33.4828 28.4415 34.0454 27.8789C34.608 27.3163 35.3711 27.0002 36.1667 27.0002H39.123C38.9338 24.9214 38.1569 22.9393 36.8832 21.2855C35.6096 19.6317 33.8916 18.3745 31.93 17.6606C29.9684 16.9468 27.8443 16.8058 25.8056 17.2542C23.7669 17.7025 21.8978 18.7217 20.4167 20.1927C18.5751 22.0101 17.4392 24.4228 17.2117 27.0002H20.1667C20.9624 27.0002 21.7255 27.3163 22.2881 27.8789C22.8507 28.4415 23.1667 29.2045 23.1667 30.0002V35.0002C23.1667 35.7958 22.8507 36.5589 22.2881 37.1215C21.7255 37.6841 20.9624 38.0002 20.1667 38.0002H18.1667C17.3711 38.0002 16.608 37.6841 16.0454 37.1215C15.4828 36.5589 15.1667 35.7958 15.1667 35.0002V28.0002C15.1696 25.4251 15.9363 22.9087 17.3699 20.7695C18.8035 18.6303 20.8395 16.9645 23.2202 15.983C25.601 15.0015 28.2194 14.7483 30.7441 15.2556C33.2687 15.7629 35.5862 17.0078 37.403 18.8327C38.6025 20.0381 39.5525 21.4683 40.1983 23.0414C40.8442 24.6146 41.1733 26.2997 41.1668 28.0002Z" fill="white"/>
</g>
</g>
<defs>
<filter id="filter0_d_1_718" x="13.1667" y="11.0006" width="34" height="35.9996" filterUnits="userSpaceOnUse" color-interpolation-filters="sRGB">
<feFlood flood-opacity="0" result="BackgroundImageFix"/>
<feColorMatrix in="SourceAlpha" type="matrix" values="0 0 0 0 0 0 0 0 0 0 0 0 0 0 0 0 0 0 127 0" result="hardAlpha"/>
<feOffset dx="2"/>
<feGaussianBlur stdDeviation="2"/>
<feComposite in2="hardAlpha" operator="out"/>
<feColorMatrix type="matrix" values="0 0 0 0 0.00392157 0 0 0 0 0.239216 0 0 0 0 0.196078 0 0 0 0.2 0"/>
<feBlend mode="normal" in2="BackgroundImageFix" result="effect1_dropShadow_1_718"/>
<feBlend mode="normal" in="SourceGraphic" in2="effect1_dropShadow_1_718" result="shape"/>
</filter>
<clipPath id="clip0_1_718">
<rect width="32" height="32" fill="white" transform="translate(12.1667 12)"/>
</clipPath>
</defs>
</svg>
