<svg width="56" height="56" viewBox="0 0 56 56" fill="none" xmlns="http://www.w3.org/2000/svg">
<rect width="56" height="56" rx="28" fill="#07C226"/>
<g clip-path="url(#clip0_1_698)">
<g filter="url(#filter0_d_1_698)">
<path d="M38.7313 27.6822L24.7313 42.6822C24.5829 42.8406 24.3871 42.9464 24.1733 42.9836C23.9596 43.0209 23.7395 42.9876 23.5463 42.8888C23.3531 42.7901 23.1973 42.6311 23.1024 42.436C23.0075 42.2409 22.9786 42.0202 23.02 41.8072L24.8525 32.641L17.6488 29.936C17.4941 29.8781 17.3561 29.7828 17.2472 29.6586C17.1383 29.5344 17.0619 29.3852 17.0248 29.2242C16.9876 29.0633 16.9909 28.8956 17.0344 28.7363C17.0778 28.5769 17.1601 28.4308 17.2738 28.311L31.2738 13.311C31.4222 13.1527 31.618 13.0469 31.8317 13.0096C32.0455 12.9723 32.2656 13.0056 32.4588 13.1044C32.652 13.2032 32.8078 13.3621 32.9027 13.5572C32.9976 13.7523 33.0265 13.973 32.985 14.186L31.1475 23.3622L38.3513 26.0635C38.5049 26.1218 38.6417 26.2169 38.7498 26.3406C38.8578 26.4644 38.9337 26.6128 38.9708 26.7728C39.0079 26.9328 39.005 27.0995 38.9623 27.2581C38.9197 27.4167 38.8386 27.5624 38.7263 27.6822H38.7313Z" fill="white"/>
</g>
</g>
<defs>
<filter id="filter0_d_1_698" x="14.9991" y="8.99475" width="29.9974" height="38.0038" filterUnits="userSpaceOnUse" color-interpolation-filters="sRGB">
<feFlood flood-opacity="0" result="BackgroundImageFix"/>
<feColorMatrix in="SourceAlpha" type="matrix" values="0 0 0 0 0 0 0 0 0 0 0 0 0 0 0 0 0 0 127 0" result="hardAlpha"/>
<feOffset dx="2"/>
<feGaussianBlur stdDeviation="2"/>
<feComposite in2="hardAlpha" operator="out"/>
<feColorMatrix type="matrix" values="0 0 0 0 0.00392157 0 0 0 0 0.239216 0 0 0 0 0.196078 0 0 0 0.2 0"/>
<feBlend mode="normal" in2="BackgroundImageFix" result="effect1_dropShadow_1_698"/>
<feBlend mode="normal" in="SourceGraphic" in2="effect1_dropShadow_1_698" result="shape"/>
</filter>
<clipPath id="clip0_1_698">
<rect width="32" height="32" fill="white" transform="translate(12 12)"/>
</clipPath>
</defs>
</svg>
