<svg width="40" height="40" viewBox="0 0 40 40" fill="none" xmlns="http://www.w3.org/2000/svg">
<rect width="40" height="40" rx="20" fill="white"/>
<path d="M26.7969 27.1758C26.7431 27.2738 26.664 27.3556 26.5678 27.4126C26.4716 27.4696 26.3619 27.4998 26.2501 27.5H22.5001C22.3949 27.5 22.2914 27.4734 22.1992 27.4227C22.107 27.3721 22.0291 27.2989 21.9727 27.2102L18.8094 22.2391L14.2126 27.2953C14.1005 27.4157 13.9455 27.487 13.7812 27.4939C13.6169 27.5008 13.4565 27.4426 13.3348 27.332C13.213 27.2214 13.1398 27.0673 13.131 26.903C13.1222 26.7388 13.1784 26.5777 13.2876 26.4547L18.1133 21.1422L13.2227 13.4609C13.1625 13.3664 13.1288 13.2575 13.1251 13.1455C13.1214 13.0335 13.1479 12.9226 13.2018 12.8243C13.2558 12.7261 13.3351 12.6441 13.4315 12.5871C13.528 12.53 13.638 12.4999 13.7501 12.5H17.5001C17.6052 12.5 17.7087 12.5266 17.8009 12.5773C17.8931 12.6279 17.971 12.7011 18.0274 12.7898L21.1907 17.7609L25.7876 12.7047C25.8996 12.5843 26.0546 12.513 26.2189 12.5061C26.3832 12.4992 26.5437 12.5574 26.6654 12.668C26.7871 12.7786 26.8603 12.9327 26.8691 13.097C26.878 13.2612 26.8217 13.4223 26.7126 13.5453L21.8868 18.8539L26.7774 26.5398C26.8373 26.6344 26.8707 26.7433 26.8741 26.8551C26.8776 26.967 26.8509 27.0777 26.7969 27.1758Z" fill="black"/>
</svg>
