<svg width="40" height="40" viewBox="0 0 40 40" fill="none" xmlns="http://www.w3.org/2000/svg">
<rect width="40" height="40" rx="20" fill="white"/>
<path d="M21.9203 21.3462L23.7172 22.2431C23.632 22.6687 23.4018 23.0515 23.0659 23.3263C22.7299 23.6012 22.309 23.7509 21.875 23.7501C20.3837 23.7484 18.9539 23.1553 17.8994 22.1007C16.8448 21.0462 16.2517 19.6164 16.25 18.1251C16.2499 17.6916 16.4 17.2714 16.6747 16.9361C16.9495 16.6008 17.332 16.3711 17.757 16.286L18.6539 18.0829L17.8906 19.2188C17.8336 19.3044 17.7985 19.4027 17.7886 19.505C17.7786 19.6074 17.7941 19.7106 17.8336 19.8056C18.2808 20.8684 19.1263 21.7138 20.1891 22.161C20.2843 22.2023 20.3883 22.2192 20.4917 22.2101C20.5951 22.2011 20.6946 22.1665 20.7812 22.1095L21.9203 21.3462ZM28.125 20.0001C28.1253 21.4028 27.7624 22.7818 27.0717 24.0027C26.381 25.2236 25.3859 26.2449 24.1834 26.9671C22.9808 27.6894 21.6118 28.088 20.2095 28.1242C18.8072 28.1603 17.4194 27.8328 16.1813 27.1735L13.5211 28.0602C13.3008 28.1337 13.0645 28.1444 12.8385 28.091C12.6126 28.0377 12.4059 27.9225 12.2418 27.7583C12.0776 27.5942 11.9624 27.3875 11.9091 27.1615C11.8557 26.9356 11.8664 26.6992 11.9398 26.479L12.8266 23.8188C12.247 22.7292 11.9233 21.5218 11.88 20.2883C11.8367 19.0549 12.075 17.8278 12.5768 16.7002C13.0785 15.5726 13.8306 14.5741 14.7759 13.7805C15.7211 12.987 16.8348 12.4192 18.0322 12.1203C19.2297 11.8214 20.4795 11.7992 21.6868 12.0555C22.8942 12.3117 24.0272 12.8396 25.0001 13.5991C25.9729 14.3586 26.7599 15.3298 27.3014 16.4389C27.8428 17.548 28.1245 18.7659 28.125 20.0001ZM25 21.8751C25.0001 21.759 24.9678 21.6451 24.9068 21.5463C24.8458 21.4475 24.7585 21.3677 24.6547 21.3157L22.1547 20.0657C22.0563 20.0167 21.9467 19.9945 21.8369 20.0013C21.7272 20.0082 21.6212 20.0439 21.5297 20.1048L20.382 20.8704C19.8552 20.5808 19.4216 20.1472 19.132 19.6204L19.8977 18.4727C19.9586 18.3812 19.9943 18.2752 20.0011 18.1655C20.008 18.0558 19.9858 17.9461 19.9367 17.8477L18.6867 15.3477C18.6349 15.2431 18.5548 15.1551 18.4555 15.0936C18.3563 15.0322 18.2418 14.9998 18.125 15.0001C17.2962 15.0001 16.5013 15.3293 15.9153 15.9154C15.3292 16.5014 15 17.2963 15 18.1251C15.0021 19.9478 15.7271 21.6953 17.0159 22.9842C18.3048 24.273 20.0523 24.998 21.875 25.0001C22.2854 25.0001 22.6917 24.9193 23.0709 24.7622C23.45 24.6052 23.7945 24.375 24.0847 24.0848C24.3749 23.7946 24.6051 23.4501 24.7621 23.071C24.9192 22.6918 25 22.2855 25 21.8751Z" fill="black"/>
</svg>
